<svg xmlns="http://www.w3.org/2000/svg" xmlns:xlink="http://www.w3.org/1999/xlink" width="1200" zoomAndPan="magnify" viewBox="0 0 900 899.99999" height="1200" preserveAspectRatio="xMidYMid meet" version="1.0"><defs><g/><clipPath id="2f9bb1c039"><path d="M 178.820312 374.089844 L 721.453125 374.089844 L 721.453125 525.910156 L 178.820312 525.910156 Z M 178.820312 374.089844 " clip-rule="nonzero"/></clipPath><clipPath id="00b435d49b"><path d="M 196.070312 374.089844 L 703.929688 374.089844 C 708.503906 374.089844 712.894531 375.910156 716.128906 379.144531 C 719.363281 382.378906 721.179688 386.765625 721.179688 391.339844 L 721.179688 508.660156 C 721.179688 513.234375 719.363281 517.621094 716.128906 520.855469 C 712.894531 524.09375 708.503906 525.910156 703.929688 525.910156 L 196.070312 525.910156 C 191.496094 525.910156 187.105469 524.09375 183.871094 520.855469 C 180.636719 517.621094 178.820312 513.234375 178.820312 508.660156 L 178.820312 391.339844 C 178.820312 386.765625 180.636719 382.378906 183.871094 379.144531 C 187.105469 375.910156 191.496094 374.089844 196.070312 374.089844 Z M 196.070312 374.089844 " clip-rule="nonzero"/></clipPath><clipPath id="6daddab874"><path d="M 178.820312 374.089844 L 721.070312 374.089844 L 721.070312 525.589844 L 178.820312 525.589844 Z M 178.820312 374.089844 " clip-rule="nonzero"/></clipPath><clipPath id="0f1a90d761"><path d="M 196.070312 374.089844 L 703.925781 374.089844 C 708.5 374.089844 712.886719 375.90625 716.121094 379.144531 C 719.355469 382.378906 721.175781 386.765625 721.175781 391.339844 L 721.175781 508.65625 C 721.175781 513.230469 719.355469 517.621094 716.121094 520.855469 C 712.886719 524.089844 708.5 525.90625 703.925781 525.90625 L 196.070312 525.90625 C 191.496094 525.90625 187.109375 524.089844 183.875 520.855469 C 180.636719 517.621094 178.820312 513.230469 178.820312 508.65625 L 178.820312 391.339844 C 178.820312 386.765625 180.636719 382.378906 183.875 379.144531 C 187.109375 375.90625 191.496094 374.089844 196.070312 374.089844 Z M 196.070312 374.089844 " clip-rule="nonzero"/></clipPath><clipPath id="fb2cb794a9"><path d="M 315.695312 384.59375 L 377.234375 384.59375 L 377.234375 446.136719 L 315.695312 446.136719 Z M 315.695312 384.59375 " clip-rule="nonzero"/></clipPath><clipPath id="6bc0e0aeb9"><path d="M 346.464844 384.59375 C 329.46875 384.59375 315.695312 398.371094 315.695312 415.363281 C 315.695312 432.359375 329.46875 446.136719 346.464844 446.136719 C 363.457031 446.136719 377.234375 432.359375 377.234375 415.363281 C 377.234375 398.371094 363.457031 384.59375 346.464844 384.59375 Z M 346.464844 384.59375 " clip-rule="nonzero"/></clipPath><clipPath id="749c4aa026"><path d="M 275.804688 418.324219 L 309.9375 418.324219 L 309.9375 452.453125 L 275.804688 452.453125 Z M 275.804688 418.324219 " clip-rule="nonzero"/></clipPath><clipPath id="abfc83f728"><path d="M 292.871094 418.324219 C 283.445312 418.324219 275.804688 425.964844 275.804688 435.390625 C 275.804688 444.816406 283.445312 452.453125 292.871094 452.453125 C 302.296875 452.453125 309.9375 444.816406 309.9375 435.390625 C 309.9375 425.964844 302.296875 418.324219 292.871094 418.324219 Z M 292.871094 418.324219 " clip-rule="nonzero"/></clipPath><clipPath id="f569460021"><path d="M 194.410156 452.839844 L 253.601562 452.839844 L 253.601562 512.03125 L 194.410156 512.03125 Z M 194.410156 452.839844 " clip-rule="nonzero"/></clipPath><clipPath id="3182b465f1"><path d="M 224.007812 452.839844 C 207.660156 452.839844 194.410156 466.089844 194.410156 482.433594 C 194.410156 498.78125 207.660156 512.03125 224.007812 512.03125 C 240.351562 512.03125 253.601562 498.78125 253.601562 482.433594 C 253.601562 466.089844 240.351562 452.839844 224.007812 452.839844 Z M 224.007812 452.839844 " clip-rule="nonzero"/></clipPath><clipPath id="b4c6ef4c6a"><path d="M 399.210938 435.390625 L 469.144531 435.390625 L 469.144531 505.324219 L 399.210938 505.324219 Z M 399.210938 435.390625 " clip-rule="nonzero"/></clipPath><clipPath id="a97c09bf65"><path d="M 434.179688 435.390625 C 414.867188 435.390625 399.210938 451.046875 399.210938 470.359375 C 399.210938 489.671875 414.867188 505.324219 434.179688 505.324219 C 453.492188 505.324219 469.144531 489.671875 469.144531 470.359375 C 469.144531 451.046875 453.492188 435.390625 434.179688 435.390625 Z M 434.179688 435.390625 " clip-rule="nonzero"/></clipPath><clipPath id="9e9be19bec"><path d="M 514.0625 390.019531 L 606.476562 390.019531 L 606.476562 482.433594 L 514.0625 482.433594 Z M 514.0625 390.019531 " clip-rule="nonzero"/></clipPath><clipPath id="ada70b72ab"><path d="M 560.269531 390.019531 C 534.75 390.019531 514.0625 410.707031 514.0625 436.226562 C 514.0625 461.746094 534.75 482.433594 560.269531 482.433594 C 585.789062 482.433594 606.476562 461.746094 606.476562 436.226562 C 606.476562 410.707031 585.789062 390.019531 560.269531 390.019531 Z M 560.269531 390.019531 " clip-rule="nonzero"/></clipPath><clipPath id="742b5683bf"><path d="M 612.753906 436.226562 L 668.832031 436.226562 L 668.832031 492.308594 L 612.753906 492.308594 Z M 612.753906 436.226562 " clip-rule="nonzero"/></clipPath><clipPath id="b4a0f83239"><path d="M 640.792969 436.226562 C 625.308594 436.226562 612.753906 448.78125 612.753906 464.265625 C 612.753906 479.753906 625.308594 492.308594 640.792969 492.308594 C 656.28125 492.308594 668.832031 479.753906 668.832031 464.265625 C 668.832031 448.78125 656.28125 436.226562 640.792969 436.226562 Z M 640.792969 436.226562 " clip-rule="nonzero"/></clipPath><clipPath id="4cfdece676"><path d="M 682.929688 431.582031 L 708.046875 431.582031 L 708.046875 456.699219 L 682.929688 456.699219 Z M 682.929688 431.582031 " clip-rule="nonzero"/></clipPath><clipPath id="529aa8a45c"><path d="M 695.488281 431.582031 C 688.554688 431.582031 682.929688 437.207031 682.929688 444.140625 C 682.929688 451.078125 688.554688 456.699219 695.488281 456.699219 C 702.425781 456.699219 708.046875 451.078125 708.046875 444.140625 C 708.046875 437.207031 702.425781 431.582031 695.488281 431.582031 Z M 695.488281 431.582031 " clip-rule="nonzero"/></clipPath></defs><g clip-path="url(#2f9bb1c039)"><g clip-path="url(#00b435d49b)"><path fill="#bbf52d" d="M 178.820312 374.089844 L 721.453125 374.089844 L 721.453125 525.910156 L 178.820312 525.910156 Z M 178.820312 374.089844 " fill-opacity="1" fill-rule="nonzero"/></g></g><g clip-path="url(#6daddab874)"><g clip-path="url(#0f1a90d761)"><path stroke-linecap="butt" transform="matrix(0.75, 0, 0, 0.75, 178.821031, 374.090801)" fill="none" stroke-linejoin="miter" d="M 22.999044 -0.00127663 L 700.139748 -0.00127663 C 706.238707 -0.00127663 712.087666 2.420599 716.400166 6.738307 C 720.712667 11.050808 723.139751 16.899767 723.139751 22.998726 L 723.139751 179.420619 C 723.139751 185.519578 720.712667 191.373746 716.400166 195.686246 C 712.087666 199.998747 706.238707 202.420622 700.139748 202.420622 L 22.999044 202.420622 C 16.900085 202.420622 11.051126 199.998747 6.738626 195.686246 C 2.420917 191.373746 -0.000958589 185.519578 -0.000958589 179.420619 L -0.000958589 22.998726 C -0.000958589 16.899767 2.420917 11.050808 6.738626 6.738307 C 11.051126 2.420599 16.900085 -0.00127663 22.999044 -0.00127663 Z M 22.999044 -0.00127663 " stroke="#000000" stroke-width="8" stroke-opacity="1" stroke-miterlimit="4"/></g></g><g clip-path="url(#fb2cb794a9)"><g clip-path="url(#6bc0e0aeb9)"><path fill="#e9ffb4" d="M 315.695312 384.59375 L 377.234375 384.59375 L 377.234375 446.136719 L 315.695312 446.136719 Z M 315.695312 384.59375 " fill-opacity="1" fill-rule="nonzero"/></g></g><g clip-path="url(#749c4aa026)"><g clip-path="url(#abfc83f728)"><path fill="#e9ffb4" d="M 275.804688 418.324219 L 309.9375 418.324219 L 309.9375 452.453125 L 275.804688 452.453125 Z M 275.804688 418.324219 " fill-opacity="1" fill-rule="nonzero"/></g></g><g clip-path="url(#f569460021)"><g clip-path="url(#3182b465f1)"><path fill="#e9ffb4" d="M 194.410156 452.839844 L 253.601562 452.839844 L 253.601562 512.03125 L 194.410156 512.03125 Z M 194.410156 452.839844 " fill-opacity="1" fill-rule="nonzero"/></g></g><g clip-path="url(#b4c6ef4c6a)"><g clip-path="url(#a97c09bf65)"><path fill="#e9ffb4" d="M 399.210938 435.390625 L 469.144531 435.390625 L 469.144531 505.324219 L 399.210938 505.324219 Z M 399.210938 435.390625 " fill-opacity="1" fill-rule="nonzero"/></g></g><g clip-path="url(#9e9be19bec)"><g clip-path="url(#ada70b72ab)"><path fill="#e9ffb4" d="M 514.0625 390.019531 L 606.476562 390.019531 L 606.476562 482.433594 L 514.0625 482.433594 Z M 514.0625 390.019531 " fill-opacity="1" fill-rule="nonzero"/></g></g><g clip-path="url(#742b5683bf)"><g clip-path="url(#b4a0f83239)"><path fill="#e9ffb4" d="M 612.753906 436.226562 L 668.832031 436.226562 L 668.832031 492.308594 L 612.753906 492.308594 Z M 612.753906 436.226562 " fill-opacity="1" fill-rule="nonzero"/></g></g><g clip-path="url(#4cfdece676)"><g clip-path="url(#529aa8a45c)"><path fill="#e9ffb4" d="M 682.929688 431.582031 L 708.046875 431.582031 L 708.046875 456.699219 L 682.929688 456.699219 Z M 682.929688 431.582031 " fill-opacity="1" fill-rule="nonzero"/></g></g><g fill="#000000" fill-opacity="1"><g transform="translate(346.463658, 467.15738)"><g><path d="M 37.65625 -7.203125 C 36.675781 -5.328125 35.25 -3.84375 33.375 -2.75 C 31.5 -1.65625 29.378906 -0.910156 27.015625 -0.515625 C 24.660156 -0.128906 22.234375 0.00390625 19.734375 -0.109375 C 17.234375 -0.234375 14.84375 -0.566406 12.5625 -1.109375 C 10.28125 -1.660156 8.296875 -2.351562 6.609375 -3.1875 C 4.929688 -4.03125 3.710938 -4.9375 2.953125 -5.90625 C 2.191406 -6.882812 2.101562 -7.863281 2.6875 -8.84375 L 3.109375 -9.546875 C 3.535156 -10.285156 4.140625 -10.734375 4.921875 -10.890625 C 5.703125 -11.046875 6.460938 -10.910156 7.203125 -10.484375 C 7.710938 -10.210938 8.570312 -9.859375 9.78125 -9.421875 C 10.988281 -8.992188 12.398438 -8.59375 14.015625 -8.21875 C 15.640625 -7.851562 17.335938 -7.5625 19.109375 -7.34375 C 20.890625 -7.132812 22.597656 -7.085938 24.234375 -7.203125 C 25.878906 -7.316406 27.316406 -7.664062 28.546875 -8.25 C 29.773438 -8.84375 30.664062 -9.722656 31.21875 -10.890625 C 31.445312 -12.023438 31.070312 -12.941406 30.09375 -13.640625 C 29.125 -14.347656 27.769531 -14.941406 26.03125 -15.421875 C 24.289062 -15.910156 22.363281 -16.367188 20.25 -16.796875 C 18.144531 -17.234375 16.054688 -17.742188 13.984375 -18.328125 C 11.921875 -18.910156 10.078125 -19.660156 8.453125 -20.578125 C 6.835938 -21.503906 5.660156 -22.664062 4.921875 -24.0625 C 4.410156 -25 4.097656 -26.191406 3.984375 -27.640625 C 3.867188 -29.085938 4.015625 -30.597656 4.421875 -32.171875 C 4.828125 -33.753906 5.597656 -35.257812 6.734375 -36.6875 C 7.867188 -38.113281 9.453125 -39.304688 11.484375 -40.265625 C 13.515625 -41.222656 16.070312 -41.78125 19.15625 -41.9375 C 20.476562 -42.007812 21.9375 -41.945312 23.53125 -41.75 C 25.132812 -41.5625 26.738281 -41.28125 28.34375 -40.90625 C 29.945312 -40.53125 31.398438 -40.0625 32.703125 -39.5 C 34.015625 -38.9375 35.0625 -38.332031 35.84375 -37.6875 C 36.625 -37.039062 36.992188 -36.347656 36.953125 -35.609375 L 36.890625 -34.78125 C 36.847656 -34 36.457031 -33.441406 35.71875 -33.109375 C 34.976562 -32.785156 34.238281 -32.757812 33.5 -33.03125 C 32.988281 -33.226562 32.117188 -33.484375 30.890625 -33.796875 C 29.660156 -34.109375 28.234375 -34.398438 26.609375 -34.671875 C 24.992188 -34.941406 23.328125 -35.125 21.609375 -35.21875 C 19.890625 -35.320312 18.269531 -35.253906 16.75 -35.015625 C 15.226562 -34.785156 13.945312 -34.316406 12.90625 -33.609375 C 11.875 -32.910156 11.242188 -31.894531 11.015625 -30.5625 C 10.816406 -29.351562 11.15625 -28.3125 12.03125 -27.4375 C 12.914062 -26.5625 14.117188 -25.8125 15.640625 -25.1875 C 17.160156 -24.5625 18.78125 -24.039062 20.5 -23.625 C 22.21875 -23.21875 23.835938 -22.882812 25.359375 -22.625 C 26.878906 -22.375 28.070312 -22.171875 28.9375 -22.015625 C 31.394531 -21.429688 33.316406 -20.613281 34.703125 -19.5625 C 36.085938 -18.507812 37.0625 -17.347656 37.625 -16.078125 C 38.1875 -14.804688 38.5 -13.570312 38.5625 -12.375 C 38.625 -11.1875 38.535156 -10.125 38.296875 -9.1875 C 38.066406 -8.25 37.851562 -7.585938 37.65625 -7.203125 Z M 37.65625 -7.203125 "/></g></g></g><g fill="#000000" fill-opacity="1"><g transform="translate(387.389773, 467.15738)"><g><path d="M 21.375 1.28125 C 19.695312 1.519531 18.414062 1.519531 17.53125 1.28125 C 16.65625 1.050781 16.195312 0.175781 16.15625 -1.34375 C 16.15625 -2.632812 16.15625 -4.195312 16.15625 -6.03125 C 16.15625 -7.863281 16.164062 -9.863281 16.1875 -12.03125 C 16.207031 -14.195312 16.21875 -16.351562 16.21875 -18.5 C 16.257812 -21.082031 16.304688 -23.09375 16.359375 -24.53125 C 16.421875 -25.976562 16.472656 -27.128906 16.515625 -27.984375 C 16.554688 -28.847656 16.554688 -29.707031 16.515625 -30.5625 L 16.390625 -34.78125 C 15.179688 -34.75 14 -34.671875 12.84375 -34.546875 C 11.695312 -34.429688 10.554688 -34.273438 9.421875 -34.078125 C 8.835938 -34.003906 8.132812 -33.9375 7.3125 -33.875 C 6.5 -33.820312 5.703125 -33.863281 4.921875 -34 C 4.140625 -34.132812 3.535156 -34.4375 3.109375 -34.90625 C 2.398438 -35.601562 2.164062 -36.5 2.40625 -37.59375 C 2.5625 -38.375 3.007812 -39.125 3.75 -39.84375 C 4.488281 -40.570312 5.582031 -41.070312 7.03125 -41.34375 C 13.78125 -42.28125 20.535156 -42.378906 27.296875 -41.640625 L 33.609375 -40.8125 C 34.785156 -40.625 35.6875 -40.222656 36.3125 -39.609375 C 36.9375 -39.003906 37.25 -38.273438 37.25 -37.421875 C 37.25 -36.992188 37.140625 -36.535156 36.921875 -36.046875 C 36.710938 -35.554688 36.34375 -35.175781 35.8125 -34.90625 C 35.28125 -34.632812 34.507812 -34.578125 33.5 -34.734375 L 22.890625 -34.84375 C 22.929688 -34.019531 22.976562 -33.128906 23.03125 -32.171875 C 23.09375 -31.222656 23.15625 -29.96875 23.21875 -28.40625 C 23.28125 -26.84375 23.328125 -24.753906 23.359375 -22.140625 C 23.398438 -20.023438 23.410156 -17.765625 23.390625 -15.359375 C 23.367188 -12.960938 23.359375 -10.570312 23.359375 -8.1875 C 23.359375 -5.8125 23.359375 -3.550781 23.359375 -1.40625 C 23.398438 -0.894531 23.242188 -0.335938 22.890625 0.265625 C 22.546875 0.867188 22.039062 1.207031 21.375 1.28125 Z M 21.375 1.28125 "/></g></g></g><g fill="#000000" fill-opacity="1"><g transform="translate(426.969268, 467.15738)"><g><path d="M 38.9375 0.109375 C 38.039062 0.546875 37.257812 0.65625 36.59375 0.4375 C 35.9375 0.21875 35.375 -0.171875 34.90625 -0.734375 C 34.4375 -1.296875 34.046875 -1.890625 33.734375 -2.515625 L 31.5625 -6.5625 C 29.613281 -6.519531 27.894531 -6.523438 26.40625 -6.578125 C 24.925781 -6.640625 23.484375 -6.703125 22.078125 -6.765625 C 20.671875 -6.828125 19.128906 -6.847656 17.453125 -6.828125 C 15.773438 -6.804688 13.785156 -6.675781 11.484375 -6.4375 C 11.046875 -5.46875 10.484375 -4.472656 9.796875 -3.453125 C 9.117188 -2.441406 8.390625 -1.570312 7.609375 -0.84375 C 6.828125 -0.125 6.046875 0.28125 5.265625 0.375 C 4.484375 0.476562 3.800781 0.117188 3.21875 -0.703125 C 2.363281 -1.910156 2.117188 -3.097656 2.484375 -4.265625 C 2.859375 -5.441406 3.394531 -6.597656 4.09375 -7.734375 C 4.957031 -9.171875 5.78125 -10.582031 6.5625 -11.96875 C 7.34375 -13.363281 8.128906 -14.867188 8.921875 -16.484375 C 9.722656 -18.109375 10.582031 -19.960938 11.5 -22.046875 C 12.425781 -24.140625 13.460938 -26.597656 14.609375 -29.421875 C 15.765625 -32.253906 17.0625 -35.582031 18.5 -39.40625 C 18.738281 -40.070312 19.179688 -40.585938 19.828125 -40.953125 C 20.472656 -41.328125 21.179688 -41.550781 21.953125 -41.625 C 22.734375 -41.707031 23.457031 -41.628906 24.125 -41.390625 C 24.789062 -41.160156 25.28125 -40.734375 25.59375 -40.109375 C 25.820312 -39.722656 26.191406 -38.953125 26.703125 -37.796875 C 27.210938 -36.648438 27.894531 -34.863281 28.75 -32.4375 C 29.644531 -29.945312 30.503906 -27.675781 31.328125 -25.625 C 32.148438 -23.570312 33 -21.554688 33.875 -19.578125 C 34.757812 -17.609375 35.753906 -15.507812 36.859375 -13.28125 C 37.972656 -11.0625 39.289062 -8.53125 40.8125 -5.6875 C 41.164062 -5.0625 41.390625 -4.394531 41.484375 -3.6875 C 41.585938 -2.988281 41.460938 -2.304688 41.109375 -1.640625 C 40.753906 -0.972656 40.03125 -0.390625 38.9375 0.109375 Z M 14.40625 -12.828125 C 16.007812 -12.941406 17.375 -13.019531 18.5 -13.0625 C 19.632812 -13.101562 20.6875 -13.125 21.65625 -13.125 C 22.632812 -13.125 23.691406 -13.113281 24.828125 -13.09375 C 25.960938 -13.070312 27.3125 -13.0625 28.875 -13.0625 C 28.007812 -15.25 27 -17.796875 25.84375 -20.703125 C 24.695312 -23.609375 23.207031 -27.25 21.375 -31.625 C 21.019531 -30.53125 20.675781 -29.484375 20.34375 -28.484375 C 20.019531 -27.492188 19.625 -26.363281 19.15625 -25.09375 C 18.6875 -23.820312 18.078125 -22.207031 17.328125 -20.25 C 16.585938 -18.300781 15.613281 -15.828125 14.40625 -12.828125 Z M 14.40625 -12.828125 "/></g></g></g><g fill="#000000" fill-opacity="1"><g transform="translate(470.822864, 467.15738)"><g><path d="M 10.1875 0.40625 C 9.71875 0.601562 9.082031 0.710938 8.28125 0.734375 C 7.488281 0.753906 6.71875 0.65625 5.96875 0.4375 C 5.226562 0.21875 4.664062 -0.140625 4.28125 -0.640625 C 3.84375 -1.378906 3.507812 -10.515625 3.28125 -28.046875 C 2.070312 -29.878906 2.003906 -31.609375 3.078125 -33.234375 C 4.148438 -34.859375 5.992188 -36.410156 8.609375 -37.890625 C 11.929688 -39.765625 15.226562 -40.992188 18.5 -41.578125 C 21.78125 -42.160156 24.90625 -41.992188 27.875 -41.078125 C 30.84375 -40.160156 33.535156 -38.375 35.953125 -35.71875 C 39.160156 -32.363281 40.765625 -28.675781 40.765625 -24.65625 C 40.765625 -18.601562 37.070312 -14.460938 29.6875 -12.234375 L 28.875 -12 C 30 -10.25 31.140625 -8.75 32.296875 -7.5 C 33.453125 -6.25 34.445312 -5.269531 35.28125 -4.5625 C 36.125 -3.863281 36.640625 -3.394531 36.828125 -3.15625 C 37.648438 -2.375 38.117188 -1.679688 38.234375 -1.078125 C 38.359375 -0.472656 38.265625 0.0195312 37.953125 0.40625 C 37.640625 0.800781 37.257812 1.082031 36.8125 1.25 C 36.363281 1.425781 35.984375 1.5 35.671875 1.46875 C 35.203125 1.382812 34.320312 1.066406 33.03125 0.515625 C 31.738281 -0.0234375 30.195312 -1.191406 28.40625 -2.984375 C 26.882812 -4.472656 25.660156 -5.703125 24.734375 -6.671875 C 23.816406 -7.648438 23.035156 -8.410156 22.390625 -8.953125 C 21.753906 -9.503906 21.082031 -9.90625 20.375 -10.15625 C 19.675781 -10.414062 18.796875 -10.570312 17.734375 -10.625 C 16.679688 -10.6875 15.300781 -10.71875 13.59375 -10.71875 L 11.0625 -10.71875 C 11.101562 -10.445312 11.144531 -9.910156 11.1875 -9.109375 C 11.226562 -8.304688 11.34375 -7.257812 11.53125 -5.96875 C 11.726562 -4.800781 11.835938 -3.875 11.859375 -3.1875 C 11.878906 -2.507812 11.890625 -1.859375 11.890625 -1.234375 C 11.890625 -0.453125 11.320312 0.09375 10.1875 0.40625 Z M 10.015625 -31.859375 C 9.898438 -29.628906 9.84375 -27.164062 9.84375 -24.46875 C 9.84375 -21.78125 9.921875 -19.285156 10.078125 -16.984375 C 12.109375 -16.628906 14.234375 -16.398438 16.453125 -16.296875 C 18.679688 -16.203125 20.828125 -16.28125 22.890625 -16.53125 C 24.960938 -16.789062 26.828125 -17.28125 28.484375 -18 C 30.148438 -18.726562 31.46875 -19.707031 32.4375 -20.9375 C 33.414062 -22.164062 33.90625 -23.71875 33.90625 -25.59375 C 33.90625 -26.957031 33.523438 -28.195312 32.765625 -29.3125 C 32.003906 -30.425781 31.023438 -31.390625 29.828125 -32.203125 C 28.640625 -33.023438 27.363281 -33.71875 26 -34.28125 C 24.632812 -34.851562 23.347656 -35.253906 22.140625 -35.484375 C 18.191406 -36.304688 14.148438 -35.097656 10.015625 -31.859375 Z M 10.015625 -31.859375 "/></g></g></g><g fill="#000000" fill-opacity="1"><g transform="translate(513.91533, 467.15738)"><g><path d="M 21.375 1.28125 C 19.695312 1.519531 18.414062 1.519531 17.53125 1.28125 C 16.65625 1.050781 16.195312 0.175781 16.15625 -1.34375 C 16.15625 -2.632812 16.15625 -4.195312 16.15625 -6.03125 C 16.15625 -7.863281 16.164062 -9.863281 16.1875 -12.03125 C 16.207031 -14.195312 16.21875 -16.351562 16.21875 -18.5 C 16.257812 -21.082031 16.304688 -23.09375 16.359375 -24.53125 C 16.421875 -25.976562 16.472656 -27.128906 16.515625 -27.984375 C 16.554688 -28.847656 16.554688 -29.707031 16.515625 -30.5625 L 16.390625 -34.78125 C 15.179688 -34.75 14 -34.671875 12.84375 -34.546875 C 11.695312 -34.429688 10.554688 -34.273438 9.421875 -34.078125 C 8.835938 -34.003906 8.132812 -33.9375 7.3125 -33.875 C 6.5 -33.820312 5.703125 -33.863281 4.921875 -34 C 4.140625 -34.132812 3.535156 -34.4375 3.109375 -34.90625 C 2.398438 -35.601562 2.164062 -36.5 2.40625 -37.59375 C 2.5625 -38.375 3.007812 -39.125 3.75 -39.84375 C 4.488281 -40.570312 5.582031 -41.070312 7.03125 -41.34375 C 13.78125 -42.28125 20.535156 -42.378906 27.296875 -41.640625 L 33.609375 -40.8125 C 34.785156 -40.625 35.6875 -40.222656 36.3125 -39.609375 C 36.9375 -39.003906 37.25 -38.273438 37.25 -37.421875 C 37.25 -36.992188 37.140625 -36.535156 36.921875 -36.046875 C 36.710938 -35.554688 36.34375 -35.175781 35.8125 -34.90625 C 35.28125 -34.632812 34.507812 -34.578125 33.5 -34.734375 L 22.890625 -34.84375 C 22.929688 -34.019531 22.976562 -33.128906 23.03125 -32.171875 C 23.09375 -31.222656 23.15625 -29.96875 23.21875 -28.40625 C 23.28125 -26.84375 23.328125 -24.753906 23.359375 -22.140625 C 23.398438 -20.023438 23.410156 -17.765625 23.390625 -15.359375 C 23.367188 -12.960938 23.359375 -10.570312 23.359375 -8.1875 C 23.359375 -5.8125 23.359375 -3.550781 23.359375 -1.40625 C 23.398438 -0.894531 23.242188 -0.335938 22.890625 0.265625 C 22.546875 0.867188 22.039062 1.207031 21.375 1.28125 Z M 21.375 1.28125 "/></g></g></g></svg>